PathFileType	4	(X/Y/Z)	./resultDataOpenSim/trcMotMarkerGrf/sub09/qtm-15-03.trc
DataRate	CameraRate	NumFrames	NumMarkers	Units	OrigDataRate	OrigDataStartFrame	OrigNumFrames
250.000000	250.000000	9	24	m	250.000000	124	494
Frame#	Time	L.Toe.Tip			R.Toe.Tip			L.Ankle.Lat			R.Ankle.Lat			L.Ankle.Med			R.Ankle.Med			L.Heel			R.Heel			L.Knee.Lat			R.Knee.Lat			L.Knee.Med			R.Knee.Med			L.Thigh.Upper			R.Thigh.Upper			L.ASIS			R.ASIS			V.Sacral			L.Acromium			R.Acromium			C7			L.Elbow			R.Elbow			L.Wrist.Lat			R.Wrist.Lat
		X1	Y1	Z1	X2	Y2	Z2	X3	Y3	Z3	X4	Y4	Z4	X5	Y5	Z5	X6	Y6	Z6	X7	Y7	Z7	X8	Y8	Z8	X9	Y9	Z9	X10	Y10	Z10	X11	Y11	Z11	X12	Y12	Z12	X13	Y13	Z13	X14	Y14	Z14	X15	Y15	Z15	X16	Y16	Z16	X17	Y17	Z17	X18	Y18	Z18	X19	Y19	Z19	X20	Y20	Z20	X21	Y21	Z21	X22	Y22	Z22	X23	Y23	Z23	X24	Y24	Z24

124	0.492	-0.12193269	0.11889903	-0.061438847	-0.65490937	0.039513968	0.080224358	-0.2738699	0.095852961	-0.09681785	-0.80098417	0.056061657	0.1100183	-0.25805919	0.12244324	-0.0016775589	-0.78565286	0.095543134	0.019388829	-0.31925129	0.031854525	-0.046295112	-0.87018657	0.033667622	0.060179331	-0.40337736	0.49412155	-0.12532145	-0.65285998	0.49314948	0.16597213	-0.40413536	0.48516787	0.0013922513	-0.67415266	0.48479381	0.037529093	-0.58086283	0.87372362	-0.15713706	-0.62658535	0.89883549	0.21076649	-0.50959961	0.96458049	-0.094441411	-0.51693628	0.97678901	0.14558554	-0.67652903	1.025331	0.014352583	-0.53067228	1.42245	-0.14942148	-0.53320507	1.4367589	0.18029283	-0.59616397	1.478476	0.017289339	-0.71242352	1.1022865	-0.1995991	-0.64265125	1.0885456	0.28535015	-0.60354459	0.86335927	-0.2457476	-0.43376884	0.90456546	0.28100215
125	0.496	-0.10747598	0.12249905	-0.060498753	-0.65486312	0.039421972	0.080238836	-0.25898281	0.09736208	-0.097280477	-0.80088491	0.056088873	0.10994455	-0.24427691	0.12390026	-0.001978498	-0.78547064	0.095492672	0.019300231	-0.30350619	0.032392314	-0.047689716	-0.87015437	0.033852547	0.060067796	-0.39642482	0.49283625	-0.12533038	-0.65001658	0.49228461	0.16604588	-0.39798858	0.48321995	0.0015166201	-0.67125359	0.48406899	0.037517509	-0.57426284	0.87167658	-0.15696913	-0.62098497	0.89772317	0.21051965	-0.50311889	0.96266686	-0.094155097	-0.51076207	0.97543922	0.14576818	-0.67040564	1.0235698	0.013859236	-0.52456881	1.4208151	-0.14973818	-0.52733459	1.4352639	0.18008695	-0.59015507	1.4769746	0.016900501	-0.70609939	1.1006406	-0.19993674	-0.6362017	1.0868227	0.28547602	-0.59833452	0.86141038	-0.24629356	-0.42682998	0.90347281	0.28031195
126	0.5	-0.093581316	0.12583762	-0.05947638	-0.65481584	0.039338496	0.080254311	-0.24461463	0.098894107	-0.097691148	-0.80079312	0.056119208	0.10988109	-0.23111415	0.12523392	-0.0023054092	-0.785264	0.095454571	0.019220715	-0.28851483	0.03301118	-0.049056412	-0.87011258	0.034074794	0.05996959	-0.3894366	0.49159132	-0.12538705	-0.6470812	0.49140238	0.16608729	-0.39182007	0.48135993	0.0016151247	-0.66836907	0.48332267	0.037474788	-0.567659	0.86964949	-0.15684355	-0.61528631	0.89655423	0.2102765	-0.49666724	0.96076916	-0.093884339	-0.50454387	0.97407207	0.14592051	-0.66447604	1.021806	0.013184323	-0.51848272	1.4191654	-0.1500466	-0.52146661	1.4337472	0.17987764	-0.58412536	1.475427	0.016505023	-0.69978358	1.098947	-0.20028774	-0.62974934	1.0850752	0.28558202	-0.5930828	0.85946768	-0.24685301	-0.41993511	0.90232631	0.27962737
127	0.504	-0.080297525	0.12887815	-0.058449595	-0.65476548	0.039255961	0.08027672	-0.23084305	0.10035219	-0.098022877	-0.80071309	0.056151878	0.10982569	-0.21847209	0.12649756	-0.0026234895	-0.78503333	0.095430996	0.019140847	-0.27431285	0.033637622	-0.050343001	-0.8700635	0.034330918	0.059872055	-0.38238469	0.49039629	-0.12552004	-0.64402384	0.49050637	0.1660884	-0.38557736	0.47957803	0.0016592624	-0.66552395	0.48255495	0.037396557	-0.56102316	0.86765538	-0.15676112	-0.60947408	0.8953264	0.2100334	-0.49024329	0.95888927	-0.093637027	-0.4982701	0.9726808	0.14603773	-0.6587541	1.0200532	0.012329078	-0.51236973	1.4175021	-0.15034925	-0.51559092	1.4322067	0.17965401	-0.5780737	1.4738461	0.016106344	-0.69346756	1.0972161	-0.20062411	-0.62329039	1.083313	0.28566352	-0.58778608	0.85754501	-0.24743107	-0.41308641	0.90113041	0.27895612
128	0.508	-0.067669218	0.13158372	-0.057520866	-0.65471113	0.039164306	0.080306304	-0.2177472	0.10161566	-0.098273739	-0.80065058	0.056209518	0.10976913	-0.20630542	0.12770527	-0.0028984267	-0.7847803	0.095420328	0.019052593	-0.26086685	0.034181676	-0.051459059	-0.87001919	0.034612615	0.059763338	-0.37521182	0.48927367	-0.12573827	-0.64081993	0.4895899	0.16602032	-0.37918917	0.47787156	0.001618689	-0.66269582	0.48175707	0.037279372	-0.55432608	0.8657047	-0.15671352	-0.60353823	0.89403235	0.20979499	-0.48384593	0.95702157	-0.093415121	-0.4919435	0.97124923	0.14612025	-0.65308956	1.0182874	0.011457887	-0.50620488	1.4158157	-0.15064899	-0.50968607	1.4306377	0.17941473	-0.57200126	1.4722332	0.015703745	-0.68703211	1.0954622	-0.20089996	-0.61682005	1.0815436	0.28571492	-0.58242646	0.85562162	-0.24801599	-0.40628415	0.89988736	0.27829587
129	0.512	-0.055731423	0.1339066	-0.056783829	-0.65465229	0.039057984	0.080334043	-0.20539753	0.10257232	-0.098457299	-0.80061516	0.056362476	0.10969316	-0.19469047	0.12878751	-0.0031539812	-0.78450845	0.095420687	0.018949528	-0.24814032	0.034551082	-0.052207136	-0.86998807	0.034909233	0.059636455	-0.36786353	0.48824998	-0.12602458	-0.63744629	0.48864807	0.16585393	-0.37257087	0.47626582	0.0014821765	-0.65980252	0.48092157	0.037130949	-0.54756443	0.8638033	-0.15668511	-0.59746582	0.89265939	0.20956426	-0.47747552	0.95516228	-0.0932217	-0.4855717	0.96976838	0.14618016	-0.64725494	1.016512	0.010794768	-0.49998702	1.4141012	-0.15095124	-0.50374488	1.4290412	0.17915705	-0.56591465	1.4705802	0.015295868	-0.6803338	1.0936901	-0.2010878	-0.61033532	1.0797701	0.28573161	-0.57697961	0.85365598	-0.24858489	-0.39952747	0.89859777	0.27763652
130	0.516	-0.044514698	0.13578718	-0.056310021	-0.65458881	0.038941088	0.080348982	-0.19387202	0.1031471	-0.098581318	-0.80061612	0.056722681	0.10958439	-0.18373683	0.12964083	-0.0034402608	-0.78422057	0.095436458	0.018828489	-0.23614854	0.034691968	-0.05246362	-0.86996541	0.035220037	0.059488741	-0.36030005	0.48732997	-0.12634662	-0.63393226	0.48768341	0.16561005	-0.36562574	0.47481404	0.0012744135	-0.65673069	0.48005259	0.036970998	-0.54076725	0.86195275	-0.15665494	-0.59125784	0.89119853	0.20934643	-0.47113363	0.95331479	-0.09306428	-0.47915563	0.96824122	0.14623043	-0.64114738	1.0148174	0.010395995	-0.49372646	1.4123651	-0.15125918	-0.49777691	1.4274237	0.17887082	-0.55982508	1.4688839	0.014885693	-0.67343353	1.0918983	-0.20122599	-0.60383808	1.0779943	0.28571287	-0.57143954	0.85163008	-0.24913047	-0.39280852	0.89726501	0.27697492
131	0.52	-0.034044685	0.13716593	-0.056157834	-0.65452183	0.038824912	0.080348037	-0.18323967	0.10331362	-0.098646443	-0.80060979	0.057306364	0.10945313	-0.17345581	0.13020764	-0.0037575757	-0.78391608	0.095478755	0.018690041	-0.22495453	0.034597494	-0.05228448	-0.86993919	0.035556709	0.05931797	-0.35249597	0.48649133	-0.12666681	-0.63040049	0.48670475	0.16534812	-0.35825168	0.47357576	0.0010438783	-0.65340227	0.47915768	0.03680908	-0.53396167	0.86014937	-0.15661213	-0.58493352	0.88965045	0.20915394	-0.46481942	0.95148699	-0.09294736	-0.4726943	0.96667223	0.14627189	-0.63482293	1.0132981	0.010146651	-0.48743206	1.4106151	-0.15157215	-0.49178712	1.4257943	0.17855338	-0.55373923	1.4671471	0.014477886	-0.6665752	1.0900918	-0.20140293	-0.59732848	1.0762181	0.28565756	-0.56582645	0.84956188	-0.2496724	-0.38612024	0.89589807	0.27631677
132	0.524	-0.024325642	0.13799555	-0.056356874	-0.65445294	0.038720355	0.080335997	-0.17350376	0.10309173	-0.098664556	-0.80046346	0.057876531	0.10931793	-0.16377304	0.1304746	-0.0040559735	-0.78359318	0.095554487	0.018537935	-0.21462187	0.034280363	-0.051818458	-0.8699	0.035937032	0.059123732	-0.34443747	0.48570708	-0.12695451	-0.62700906	0.48571669	0.16509016	-0.35037276	0.47259292	0.0008376478	-0.64985931	0.47823553	0.036647592	-0.52715114	0.85838404	-0.15656522	-0.5785066	0.88802165	0.20898888	-0.45852491	0.94968437	-0.09287544	-0.46619294	0.96505591	0.14629819	-0.62838612	1.0118933	0.0099613342	-0.48110519	1.4088534	-0.1518894	-0.48576571	1.424158	0.1782148	-0.54765284	1.4653769	0.014073763	-0.65989077	1.0882802	-0.20167294	-0.59080517	1.0744429	0.28556233	-0.56017201	0.84747853	-0.25023951	-0.37946668	0.894504	0.27566268
